<svg xmlns="http://www.w3.org/2000/svg" viewBox="0 0 800 450" fill="none">
  <rect width="800" height="450" rx="12" fill="#f8fafc"/>
  <rect y="0" width="800" height="36" rx="12" fill="#1e293b"/>
  <circle cx="20" cy="18" r="6" fill="#ef4444"/>
  <circle cx="40" cy="18" r="6" fill="#f59e0b"/>
  <circle cx="60" cy="18" r="6" fill="#22c55e"/>
  <rect x="280" y="10" width="240" height="16" rx="8" fill="#334155"/>
  <rect y="36" width="200" height="414" fill="#0f172a"/>
  <rect x="24" y="70" width="152" height="12" rx="4" fill="#334155"/>
  <rect x="24" y="100" width="120" height="8" rx="4" fill="#1e293b"/>
  <rect x="24" y="130" width="152" height="32" rx="8" fill="#1d4ed8"/>
  <rect x="24" y="180" width="152" height="8" rx="4" fill="#334155"/>
  <rect x="24" y="200" width="152" height="8" rx="4" fill="#334155"/>
  <rect x="24" y="220" width="152" height="8" rx="4" fill="#334155"/>
  <rect x="220" y="60" width="540" height="80" rx="12" fill="#ffffff"/>
  <rect x="240" y="85" width="200" height="14" rx="4" fill="#e2e8f0"/>
  <rect x="240" y="108" width="320" height="10" rx="4" fill="#f1f5f9"/>
  <rect x="220" y="160" width="170" height="110" rx="12" fill="#ffffff"/>
  <rect x="410" y="160" width="170" height="110" rx="12" fill="#ffffff"/>
  <rect x="600" y="160" width="160" height="110" rx="12" fill="#ffffff"/>
  <rect x="240" y="185" width="80" height="10" rx="4" fill="#dbeafe"/>
  <rect x="430" y="185" width="80" height="10" rx="4" fill="#dcfce7"/>
  <rect x="620" y="185" width="80" height="10" rx="4" fill="#fef3c7"/>
  <rect x="220" y="290" width="540" height="130" rx="12" fill="#ffffff"/>
  <text x="490" y="360" text-anchor="middle" fill="#0f172a" font-family="system-ui,sans-serif" font-size="22" font-weight="600">BEPAS Log  Dashboard</text>
</svg>
