<svg xmlns="http://www.w3.org/2000/svg" viewBox="0 0 800 450" fill="none">
  <rect width="800" height="450" rx="12" fill="#f8fafc"/>
  <rect y="0" width="800" height="36" rx="12" fill="#1e293b"/>
  <circle cx="20" cy="18" r="6" fill="#ef4444"/>
  <circle cx="40" cy="18" r="6" fill="#f59e0b"/>
  <circle cx="60" cy="18" r="6" fill="#22c55e"/>
  <rect x="280" y="10" width="240" height="16" rx="8" fill="#334155"/>
  <rect y="36" width="800" height="414" fill="#f1f5f9"/>
  <rect x="40" y="70" width="720" height="56" rx="10" fill="#1e3a5f"/>
  <text x="400" y="105" text-anchor="middle" fill="#ffffff" font-family="system-ui,sans-serif" font-size="20" font-weight="600">Fondation EL-Shadda’  Gestion logistique</text>
  <rect x="40" y="150" width="220" height="120" rx="10" fill="#ffffff" stroke="#e2e8f0"/>
  <rect x="290" y="150" width="220" height="120" rx="10" fill="#ffffff" stroke="#e2e8f0"/>
  <rect x="540" y="150" width="220" height="120" rx="10" fill="#ffffff" stroke="#e2e8f0"/>
  <rect x="60" y="175" width="100" height="10" rx="4" fill="#cbd5e1"/>
  <rect x="60" y="200" width="60" height="24" rx="4" fill="#1e3a5f"/>
  <rect x="310" y="175" width="100" height="10" rx="4" fill="#cbd5e1"/>
  <rect x="310" y="200" width="60" height="24" rx="4" fill="#b45309"/>
  <rect x="560" y="175" width="100" height="10" rx="4" fill="#cbd5e1"/>
  <rect x="560" y="200" width="60" height="24" rx="4" fill="#15803d"/>
  <rect x="40" y="300" width="720" height="110" rx="10" fill="#ffffff" stroke="#e2e8f0"/>
  <rect x="60" y="325" width="680" height="10" rx="4" fill="#e2e8f0"/>
  <rect x="60" y="350" width="500" height="10" rx="4" fill="#f1f5f9"/>
  <rect x="60" y="375" width="400" height="10" rx="4" fill="#f1f5f9"/>
</svg>
